<?xml version="1.0" encoding="UTF-8"?>
<svg width="512px" height="512px" viewBox="0 0 512 512" version="1.1" xmlns="http://www.w3.org/2000/svg" xmlns:xlink="http://www.w3.org/1999/xlink">
    <title>holodata copy 10</title>
    <defs>
        <linearGradient x1="84.6386761%" y1="86.8557049%" x2="13.5023889%" y2="12.9085095%" id="linearGradient-1">
            <stop stop-color="#FFFFFF" stop-opacity="0.505132929" offset="0%"></stop>
            <stop stop-color="#FFFFFF" offset="100%"></stop>
        </linearGradient>
    </defs>
    <g id="holodata-copy-10" stroke="none" stroke-width="1" fill="none" fill-rule="evenodd">
        <path d="M256,43 C373.636652,43 469,138.363348 469,256 C469,373.636652 373.636652,469 256,469 C138.363348,469 43,373.636652 43,256 C43,138.363348 138.363348,43 256,43 Z M256.5,68 C152.946609,68 69,151.946609 69,255.5 C69,359.053391 152.946609,443 256.5,443 C360.053391,443 444,359.053391 444,255.5 C444,151.946609 360.053391,68 256.5,68 Z" id="Combined-Shape" fill="url(#linearGradient-1)" fill-rule="nonzero"></path>
        <path d="M231.886203,126 L231.886203,183.909737 L232.465148,183.909737 C238.447584,170.670504 249.640529,163.62228 265.851001,163.62228 C289.159344,163.62228 302.726902,178.371719 302.995922,202.233136 L303,202.958993 L302.885614,384.761798 L275.096234,384.761798 L275.096234,366.855498 L274.613779,366.855498 C269.40327,378.380298 257.148925,386 241.517398,386 C215.07889,386 198,365.236311 198,332.185853 C198,299.325887 215.175381,278.657444 241.613889,278.657444 C256.700242,278.657444 268.427747,285.933175 273.860521,297.224373 L274.131325,297.801946 L274.71027,297.801946 L274.824656,208.769016 C274.824656,195.264559 268.08943,187.023377 255.079509,186.772999 L254.465074,186.767126 C240.771756,186.767126 232.607584,196.110183 232.373818,209.873396 L232.368657,210.483449 L232.368657,256 C225.72296,257.28809 220.10574,259.108374 215.516995,261.460851 C210.928251,263.813329 207.15369,266.461995 204.193313,269.406851 L204.193313,126 L231.886203,126 Z M250,301 C235.349398,301 226,313.021374 226,331.952672 C226,351.073282 235.349398,363 250,363 C264.554217,363 274,350.883969 274,332.047328 C274,313.210687 264.554217,301 250,301 Z" id="Shape" fill="#FFFFFF" fill-rule="nonzero"></path>
        <path d="M231.886203,126 L231.886203,183.909737 L232.465148,183.909737 C238.447584,170.670504 249.640529,163.62228 265.851001,163.62228 C289.159344,163.62228 302.726902,178.371719 302.995922,202.233136 L303,202.958993 L302.885614,384.761798 L275.096234,384.761798 L275.096234,366.855498 L274.613779,366.855498 C269.40327,378.380298 257.148925,386 241.517398,386 C215.07889,386 198,365.236311 198,332.185853 C198,299.325887 215.175381,278.657444 241.613889,278.657444 C256.700242,278.657444 268.427747,285.933175 273.860521,297.224373 L274.131325,297.801946 L274.71027,297.801946 L274.824656,208.769016 C274.824656,195.264559 268.08943,187.023377 255.079509,186.772999 L254.465074,186.767126 C240.771756,186.767126 232.607584,196.110183 232.373818,209.873396 L232.368657,210.483449 L232.368657,256 C225.72296,257.28809 220.10574,259.108374 215.516995,261.460851 C210.928251,263.813329 207.15369,266.461995 204.193313,269.406851 L204.193313,126 L231.886203,126 Z M250,301 C235.349398,301 226,313.021374 226,331.952672 C226,351.073282 235.349398,363 250,363 C264.554217,363 274,350.883969 274,332.047328 C274,313.210687 264.554217,301 250,301 Z" id="Shape" fill="#FFFFFF" fill-rule="nonzero"></path>
    </g>
</svg>
